<svg width="64" height="64" viewBox="0 0 64 64" fill="none" xmlns="http://www.w3.org/2000/svg">
<path d="M26.7294 0.339851C19.5263 1.57 12.8251 5.4142 7.90588 11.1036C4.21647 15.3835 1.70667 20.6116 0.451765 26.6086C-0.150588 29.5814 -0.150588 35.8859 0.451765 38.9613C1.75686 45.6502 4.71843 51.2884 9.41176 56.1065C12.0973 58.8487 14.9584 60.8989 18.5475 62.6416C21.4588 64.0512 22.7388 64.3074 23.4667 63.6411C23.9184 63.2311 23.9686 62.8466 23.9686 60.0019C23.9686 56.9009 23.9435 56.8241 23.4416 56.9778C22.6635 57.2341 18.949 57.1572 17.9953 56.8753C16.6651 56.4653 15.0086 55.3889 14.331 54.4663C14.0047 54.0306 13.3522 52.8261 12.9004 51.8522C12.298 50.5196 11.6455 49.5969 10.24 48.2387C9.23608 47.2392 8.40784 46.2909 8.40784 46.1372C8.40784 45.7015 9.63765 45.5477 10.742 45.8553C12.1725 46.2397 13.4275 47.2392 14.6322 48.905C15.9875 50.7758 16.8659 51.6216 17.9953 52.0829C19.2 52.5954 21.9106 52.5954 23.1655 52.1085C24.0188 51.7497 24.1694 51.5447 24.4455 50.4683C24.6212 49.802 25.0227 48.8281 25.3741 48.3155L25.9765 47.3673L25.4243 47.2648C20.4549 46.3166 17.9953 45.2658 15.7867 43.1899C12.9757 40.5246 11.6455 36.9111 11.6455 31.7342C11.6204 28.2232 12.1475 26.1985 13.6784 23.8408L14.6824 22.3287L14.3812 20.2272C14.08 18.1001 14.2557 15.8961 14.9082 14.2046C15.1843 13.487 15.2345 13.4614 16.64 13.5895C18.171 13.7433 20.731 14.7941 22.7639 16.1267L23.9435 16.9212L25.9012 16.4343C28.6369 15.7936 35.338 15.7936 38.0737 16.4343L40.0063 16.8956L41.6878 15.8704C43.8714 14.5378 45.829 13.7689 47.4855 13.5895C48.7404 13.487 48.8157 13.5127 49.0918 14.2046C49.7443 15.8961 49.92 18.1001 49.6188 20.2785C49.3427 22.2518 49.3427 22.4312 49.8196 23.0207C51.6016 25.2759 52.4047 28.1206 52.3796 31.8623C52.3043 40.3965 48.4894 45.1889 40.4078 46.8804C39.178 47.1367 38.1239 47.3673 38.0988 47.3673C38.0737 47.3673 38.3749 47.9055 38.7765 48.5718C39.7804 50.2889 40.0314 52.0829 40.0314 58.0029C40.0314 62.6929 40.0816 63.2054 40.4831 63.5899C41.1859 64.2562 42.1396 64.128 44.5239 63.0773C54.4125 58.7462 61.3898 49.9045 63.5482 38.9613C64.1506 35.8859 64.1506 29.5814 63.5482 26.6086C62.2933 20.6116 59.7835 15.3835 56.0941 11.1036C51.0996 5.33732 44.3733 1.51874 37.0196 0.314223C34.4094 -0.121454 29.2894 -0.0958256 26.7294 0.339851Z" fill="white"/>
</svg>
