<svg width="64" height="64" viewBox="0 0 64 64" fill="none" xmlns="http://www.w3.org/2000/svg">
<path d="M50.6667 0H13.3333C5.97067 0 0 5.97067 0 13.3333V50.6667C0 58.0293 5.97067 64 13.3333 64H50.6667C58.032 64 64 58.0293 64 50.6667V13.3333C64 5.97067 58.032 0 50.6667 0ZM50.296 24.632C50.8533 36.944 41.672 50.672 25.416 50.672C20.472 50.672 15.872 49.224 11.9973 46.7387C16.6427 47.2853 21.2773 45.9973 24.9573 43.1147C21.1253 43.0427 17.8933 40.512 16.7813 37.0347C18.1547 37.296 19.504 37.2187 20.7333 36.8853C16.5227 36.04 13.6187 32.248 13.712 28.192C14.8907 28.848 16.2427 29.2427 17.6747 29.288C13.7787 26.6827 12.6747 21.536 14.9653 17.6C19.2827 22.896 25.7333 26.3813 33.008 26.7467C31.7307 21.272 35.888 16 41.5387 16C44.0533 16 46.3307 17.0613 47.9253 18.7653C49.92 18.3733 51.7947 17.6453 53.488 16.6427C52.832 18.688 51.4453 20.4027 49.64 21.4853C51.4107 21.272 53.0987 20.8027 54.6667 20.1067C53.496 21.856 52.0107 23.3973 50.296 24.632Z" fill="white"/>
</svg>
